<svg height="5294" width="720" xmlns="http://www.w3.org/2000/svg">
<rect height="5294" fill="#555" width="720"></rect>
<text fill="#7f7" font-family="Courier New" font-size="12" xml:space="preserve">
<tspan x="10" y="26">50 megabytes installed</tspan>
<tspan x="10" y="42"></tspan>
<tspan x="10" y="58">node_modules</tspan>
<tspan x="10" y="74">└─┬ babel-node-debug@2.0.0 </tspan>
<tspan x="10" y="90">  ├─┬ babel-cli@6.24.1 </tspan>
<tspan x="10" y="106">  │ ├─┬ babel-core@6.24.1 </tspan>
<tspan x="10" y="122">  │ │ ├─┬ babel-code-frame@6.22.0 </tspan>
<tspan x="10" y="138">  │ │ │ ├─┬ chalk@1.1.3 </tspan>
<tspan x="10" y="154">  │ │ │ │ ├── ansi-styles@2.2.1 </tspan>
<tspan x="10" y="170">  │ │ │ │ ├── escape-string-regexp@1.0.5 </tspan>
<tspan x="10" y="186">  │ │ │ │ ├── has-ansi@2.0.0 </tspan>
<tspan x="10" y="202">  │ │ │ │ └── supports-color@2.0.0 </tspan>
<tspan x="10" y="218">  │ │ │ ├── esutils@2.0.2 </tspan>
<tspan x="10" y="234">  │ │ │ └── js-tokens@3.0.1 </tspan>
<tspan x="10" y="250">  │ │ ├─┬ babel-generator@6.24.1 </tspan>
<tspan x="10" y="266">  │ │ │ ├─┬ detect-indent@4.0.0 </tspan>
<tspan x="10" y="282">  │ │ │ │ └─┬ repeating@2.0.1 </tspan>
<tspan x="10" y="298">  │ │ │ │   └── is-finite@1.0.2 </tspan>
<tspan x="10" y="314">  │ │ │ ├── jsesc@1.3.0 </tspan>
<tspan x="10" y="330">  │ │ │ └── trim-right@1.0.1 </tspan>
<tspan x="10" y="346">  │ │ ├── babel-helpers@6.24.1 </tspan>
<tspan x="10" y="362">  │ │ ├── babel-messages@6.23.0 </tspan>
<tspan x="10" y="378">  │ │ ├── babel-template@6.24.1 </tspan>
<tspan x="10" y="394">  │ │ ├─┬ babel-traverse@6.24.1 </tspan>
<tspan x="10" y="410">  │ │ │ ├── globals@9.17.0 </tspan>
<tspan x="10" y="426">  │ │ │ └─┬ invariant@2.2.2 </tspan>
<tspan x="10" y="442">  │ │ │   └── loose-envify@1.3.1 </tspan>
<tspan x="10" y="458">  │ │ ├─┬ babel-types@6.24.1 </tspan>
<tspan x="10" y="474">  │ │ │ └── to-fast-properties@1.0.2 </tspan>
<tspan x="10" y="490">  │ │ ├── babylon@6.17.0 </tspan>
<tspan x="10" y="506">  │ │ ├── json5@0.5.1 </tspan>
<tspan x="10" y="522">  │ │ ├─┬ minimatch@3.0.3 </tspan>
<tspan x="10" y="538">  │ │ │ └─┬ brace-expansion@1.1.7 </tspan>
<tspan x="10" y="554">  │ │ │   ├── balanced-match@0.4.2 </tspan>
<tspan x="10" y="570">  │ │ │   └── concat-map@0.0.1 </tspan>
<tspan x="10" y="586">  │ │ └── private@0.1.7 </tspan>
<tspan x="10" y="602">  │ ├─┬ babel-polyfill@6.23.0 </tspan>
<tspan x="10" y="618">  │ │ ├── core-js@2.4.1 </tspan>
<tspan x="10" y="634">  │ │ └── regenerator-runtime@0.10.4 </tspan>
<tspan x="10" y="650">  │ ├─┬ babel-register@6.24.1 </tspan>
<tspan x="10" y="666">  │ │ ├─┬ home-or-tmp@2.0.0 </tspan>
<tspan x="10" y="682">  │ │ │ ├── os-homedir@1.0.2 </tspan>
<tspan x="10" y="698">  │ │ │ └── os-tmpdir@1.0.2 </tspan>
<tspan x="10" y="714">  │ │ ├─┬ mkdirp@0.5.1 </tspan>
<tspan x="10" y="730">  │ │ │ └── minimist@0.0.8 </tspan>
<tspan x="10" y="746">  │ │ └── source-map-support@0.4.14 </tspan>
<tspan x="10" y="762">  │ ├── babel-runtime@6.23.0 </tspan>
<tspan x="10" y="778">  │ ├─┬ chokidar@1.6.1 </tspan>
<tspan x="10" y="794">  │ │ ├─┬ anymatch@1.3.0 </tspan>
<tspan x="10" y="810">  │ │ │ ├── arrify@1.0.1 </tspan>
<tspan x="10" y="826">  │ │ │ └─┬ micromatch@2.3.11 </tspan>
<tspan x="10" y="842">  │ │ │   ├─┬ arr-diff@2.0.0 </tspan>
<tspan x="10" y="858">  │ │ │   │ └── arr-flatten@1.0.3 </tspan>
<tspan x="10" y="874">  │ │ │   ├── array-unique@0.2.1 </tspan>
<tspan x="10" y="890">  │ │ │   ├─┬ braces@1.8.5 </tspan>
<tspan x="10" y="906">  │ │ │   │ ├─┬ expand-range@1.8.2 </tspan>
<tspan x="10" y="922">  │ │ │   │ │ └─┬ fill-range@2.2.3 </tspan>
<tspan x="10" y="938">  │ │ │   │ │   ├── is-number@2.1.0 </tspan>
<tspan x="10" y="954">  │ │ │   │ │   ├── isobject@2.1.0 </tspan>
<tspan x="10" y="970">  │ │ │   │ │   ├── randomatic@1.1.6 </tspan>
<tspan x="10" y="986">  │ │ │   │ │   └── repeat-string@1.6.1 </tspan>
<tspan x="10" y="1002">  │ │ │   │ ├── preserve@0.2.0 </tspan>
<tspan x="10" y="1018">  │ │ │   │ └── repeat-element@1.1.2 </tspan>
<tspan x="10" y="1034">  │ │ │   ├─┬ expand-brackets@0.1.5 </tspan>
<tspan x="10" y="1050">  │ │ │   │ └── is-posix-bracket@0.1.1 </tspan>
<tspan x="10" y="1066">  │ │ │   ├── extglob@0.3.2 </tspan>
<tspan x="10" y="1082">  │ │ │   ├── filename-regex@2.0.0 </tspan>
<tspan x="10" y="1098">  │ │ │   ├─┬ kind-of@3.2.0 </tspan>
<tspan x="10" y="1114">  │ │ │   │ └── is-buffer@1.1.5 </tspan>
<tspan x="10" y="1130">  │ │ │   ├─┬ normalize-path@2.1.1 </tspan>
<tspan x="10" y="1146">  │ │ │   │ └── remove-trailing-separator@1.0.1 </tspan>
<tspan x="10" y="1162">  │ │ │   ├─┬ object.omit@2.0.1 </tspan>
<tspan x="10" y="1178">  │ │ │   │ ├─┬ for-own@0.1.5 </tspan>
<tspan x="10" y="1194">  │ │ │   │ │ └── for-in@1.0.2 </tspan>
<tspan x="10" y="1210">  │ │ │   │ └── is-extendable@0.1.1 </tspan>
<tspan x="10" y="1226">  │ │ │   ├─┬ parse-glob@3.0.4 </tspan>
<tspan x="10" y="1242">  │ │ │   │ ├── glob-base@0.3.0 </tspan>
<tspan x="10" y="1258">  │ │ │   │ └── is-dotfile@1.0.2 </tspan>
<tspan x="10" y="1274">  │ │ │   └─┬ regex-cache@0.4.3 </tspan>
<tspan x="10" y="1290">  │ │ │     ├── is-equal-shallow@0.1.3 </tspan>
<tspan x="10" y="1306">  │ │ │     └── is-primitive@2.0.0 </tspan>
<tspan x="10" y="1322">  │ │ ├── async-each@1.0.1 </tspan>
<tspan x="10" y="1338">  │ │ ├── glob-parent@2.0.0 </tspan>
<tspan x="10" y="1354">  │ │ ├── inherits@2.0.3 </tspan>
<tspan x="10" y="1370">  │ │ ├─┬ is-binary-path@1.0.1 </tspan>
<tspan x="10" y="1386">  │ │ │ └── binary-extensions@1.8.0 </tspan>
<tspan x="10" y="1402">  │ │ ├─┬ is-glob@2.0.1 </tspan>
<tspan x="10" y="1418">  │ │ │ └── is-extglob@1.0.0 </tspan>
<tspan x="10" y="1434">  │ │ └─┬ readdirp@2.1.0 </tspan>
<tspan x="10" y="1450">  │ │   ├─┬ readable-stream@2.2.9 </tspan>
<tspan x="10" y="1466">  │ │   │ ├── buffer-shims@1.0.0 </tspan>
<tspan x="10" y="1482">  │ │   │ ├── core-util-is@1.0.2 </tspan>
<tspan x="10" y="1498">  │ │   │ ├── isarray@1.0.0 </tspan>
<tspan x="10" y="1514">  │ │   │ ├── process-nextick-args@1.0.7 </tspan>
<tspan x="10" y="1530">  │ │   │ ├── string_decoder@1.0.0 </tspan>
<tspan x="10" y="1546">  │ │   │ └── util-deprecate@1.0.2 </tspan>
<tspan x="10" y="1562">  │ │   └── set-immediate-shim@1.0.1 </tspan>
<tspan x="10" y="1578">  │ ├─┬ commander@2.9.0 </tspan>
<tspan x="10" y="1594">  │ │ └── graceful-readlink@1.0.1 </tspan>
<tspan x="10" y="1610">  │ ├── convert-source-map@1.5.0 </tspan>
<tspan x="10" y="1626">  │ ├── fs-readdir-recursive@1.0.0 </tspan>
<tspan x="10" y="1642">  │ ├─┬ glob@7.1.1 </tspan>
<tspan x="10" y="1658">  │ │ ├── fs.realpath@1.0.0 </tspan>
<tspan x="10" y="1674">  │ │ ├─┬ inflight@1.0.6 </tspan>
<tspan x="10" y="1690">  │ │ │ └── wrappy@1.0.2 </tspan>
<tspan x="10" y="1706">  │ │ └── once@1.4.0 </tspan>
<tspan x="10" y="1722">  │ ├── lodash@4.17.4 </tspan>
<tspan x="10" y="1738">  │ ├─┬ output-file-sync@1.1.2 </tspan>
<tspan x="10" y="1754">  │ │ ├── graceful-fs@4.1.11 </tspan>
<tspan x="10" y="1770">  │ │ └── object-assign@4.1.1 </tspan>
<tspan x="10" y="1786">  │ ├── path-is-absolute@1.0.1 </tspan>
<tspan x="10" y="1802">  │ ├── slash@1.0.0 </tspan>
<tspan x="10" y="1818">  │ ├── source-map@0.5.6 </tspan>
<tspan x="10" y="1834">  │ └─┬ v8flags@2.1.1 </tspan>
<tspan x="10" y="1850">  │   └── user-home@1.1.1 </tspan>
<tspan x="10" y="1866">  ├── bluebird@3.5.0 </tspan>
<tspan x="10" y="1882">  ├─┬ node-inspector@0.12.10 </tspan>
<tspan x="10" y="1898">  │ ├── async@0.9.2 </tspan>
<tspan x="10" y="1914">  │ ├─┬ biased-opener@0.2.8 </tspan>
<tspan x="10" y="1930">  │ │ ├─┬ browser-launcher2@0.4.6 </tspan>
<tspan x="10" y="1946">  │ │ │ ├── headless@0.1.7 </tspan>
<tspan x="10" y="1962">  │ │ │ ├── lodash@2.4.2 </tspan>
<tspan x="10" y="1978">  │ │ │ ├── osenv@0.1.4 </tspan>
<tspan x="10" y="1994">  │ │ │ ├─┬ plist@1.2.0 </tspan>
<tspan x="10" y="2010">  │ │ │ │ ├── base64-js@0.0.8 </tspan>
<tspan x="10" y="2026">  │ │ │ │ ├─┬ xmlbuilder@4.0.0 </tspan>
<tspan x="10" y="2042">  │ │ │ │ │ └── lodash@3.10.1 </tspan>
<tspan x="10" y="2058">  │ │ │ │ └── xmldom@0.1.27 </tspan>
<tspan x="10" y="2074">  │ │ │ ├── rimraf@2.2.8 </tspan>
<tspan x="10" y="2090">  │ │ │ ├── uid@0.0.2 </tspan>
<tspan x="10" y="2106">  │ │ │ └─┬ win-detect-browsers@1.0.2 </tspan>
<tspan x="10" y="2122">  │ │ │   ├── after@0.8.2 </tspan>
<tspan x="10" y="2138">  │ │ │   ├── xtend@4.0.1 </tspan>
<tspan x="10" y="2154">  │ │ │   └── yargs@1.3.3 </tspan>
<tspan x="10" y="2170">  │ │ ├── minimist@1.2.0 </tspan>
<tspan x="10" y="2186">  │ │ └─┬ x-default-browser@0.3.1 </tspan>
<tspan x="10" y="2202">  │ │   └─┬ default-browser-id@1.0.4 </tspan>
<tspan x="10" y="2218">  │ │     ├─┬ bplist-parser@0.1.1 </tspan>
<tspan x="10" y="2234">  │ │     │ └── big-integer@1.6.22 </tspan>
<tspan x="10" y="2250">  │ │     ├─┬ meow@3.7.0 </tspan>
<tspan x="10" y="2266">  │ │     │ ├── camelcase-keys@2.1.0 </tspan>
<tspan x="10" y="2282">  │ │     │ ├─┬ loud-rejection@1.6.0 </tspan>
<tspan x="10" y="2298">  │ │     │ │ └─┬ currently-unhandled@0.4.1 </tspan>
<tspan x="10" y="2314">  │ │     │ │   └── array-find-index@1.0.2 </tspan>
<tspan x="10" y="2330">  │ │     │ ├── map-obj@1.0.1 </tspan>
<tspan x="10" y="2346">  │ │     │ ├── minimist@1.2.0 </tspan>
<tspan x="10" y="2362">  │ │     │ ├─┬ normalize-package-data@2.3.8 </tspan>
<tspan x="10" y="2378">  │ │     │ │ ├── hosted-git-info@2.4.2 </tspan>
<tspan x="10" y="2394">  │ │     │ │ ├─┬ is-builtin-module@1.0.0 </tspan>
<tspan x="10" y="2410">  │ │     │ │ │ └── builtin-modules@1.1.1 </tspan>
<tspan x="10" y="2426">  │ │     │ │ └─┬ validate-npm-package-license@3.0.1 </tspan>
<tspan x="10" y="2442">  │ │     │ │   ├─┬ spdx-correct@1.0.2 </tspan>
<tspan x="10" y="2458">  │ │     │ │   │ └── spdx-license-ids@1.2.2 </tspan>
<tspan x="10" y="2474">  │ │     │ │   └── spdx-expression-parse@1.0.4 </tspan>
<tspan x="10" y="2490">  │ │     │ ├─┬ read-pkg-up@1.0.1 </tspan>
<tspan x="10" y="2506">  │ │     │ │ ├─┬ find-up@1.1.2 </tspan>
<tspan x="10" y="2522">  │ │     │ │ │ ├── path-exists@2.1.0 </tspan>
<tspan x="10" y="2538">  │ │     │ │ │ └─┬ pinkie-promise@2.0.1 </tspan>
<tspan x="10" y="2554">  │ │     │ │ │   └── pinkie@2.0.4 </tspan>
<tspan x="10" y="2570">  │ │     │ │ └─┬ read-pkg@1.1.0 </tspan>
<tspan x="10" y="2586">  │ │     │ │   ├─┬ load-json-file@1.1.0 </tspan>
<tspan x="10" y="2602">  │ │     │ │   │ ├─┬ parse-json@2.2.0 </tspan>
<tspan x="10" y="2618">  │ │     │ │   │ │ └─┬ error-ex@1.3.1 </tspan>
<tspan x="10" y="2634">  │ │     │ │   │ │   └── is-arrayish@0.2.1 </tspan>
<tspan x="10" y="2650">  │ │     │ │   │ ├── pify@2.3.0 </tspan>
<tspan x="10" y="2666">  │ │     │ │   │ └─┬ strip-bom@2.0.0 </tspan>
<tspan x="10" y="2682">  │ │     │ │   │   └── is-utf8@0.2.1 </tspan>
<tspan x="10" y="2698">  │ │     │ │   └── path-type@1.1.0 </tspan>
<tspan x="10" y="2714">  │ │     │ ├─┬ redent@1.0.0 </tspan>
<tspan x="10" y="2730">  │ │     │ │ ├── indent-string@2.1.0 </tspan>
<tspan x="10" y="2746">  │ │     │ │ └─┬ strip-indent@1.0.1 </tspan>
<tspan x="10" y="2762">  │ │     │ │   └── get-stdin@4.0.1 </tspan>
<tspan x="10" y="2778">  │ │     │ └── trim-newlines@1.0.0 </tspan>
<tspan x="10" y="2794">  │ │     └── untildify@2.1.0 </tspan>
<tspan x="10" y="2810">  │ ├─┬ debug@2.6.5 </tspan>
<tspan x="10" y="2826">  │ │ └── ms@0.7.3 </tspan>
<tspan x="10" y="2842">  │ ├─┬ express@4.15.2 </tspan>
<tspan x="10" y="2858">  │ │ ├─┬ accepts@1.3.3 </tspan>
<tspan x="10" y="2874">  │ │ │ ├─┬ mime-types@2.1.15 </tspan>
<tspan x="10" y="2890">  │ │ │ │ └── mime-db@1.27.0 </tspan>
<tspan x="10" y="2906">  │ │ │ └── negotiator@0.6.1 </tspan>
<tspan x="10" y="2922">  │ │ ├── array-flatten@1.1.1 </tspan>
<tspan x="10" y="2938">  │ │ ├── content-disposition@0.5.2 </tspan>
<tspan x="10" y="2954">  │ │ ├── content-type@1.0.2 </tspan>
<tspan x="10" y="2970">  │ │ ├── cookie@0.3.1 </tspan>
<tspan x="10" y="2986">  │ │ ├── cookie-signature@1.0.6 </tspan>
<tspan x="10" y="3002">  │ │ ├─┬ debug@2.6.1 </tspan>
<tspan x="10" y="3018">  │ │ │ └── ms@0.7.2 </tspan>
<tspan x="10" y="3034">  │ │ ├── depd@1.1.0 </tspan>
<tspan x="10" y="3050">  │ │ ├── encodeurl@1.0.1 </tspan>
<tspan x="10" y="3066">  │ │ ├── escape-html@1.0.3 </tspan>
<tspan x="10" y="3082">  │ │ ├── etag@1.8.0 </tspan>
<tspan x="10" y="3098">  │ │ ├─┬ finalhandler@1.0.2 </tspan>
<tspan x="10" y="3114">  │ │ │ ├── debug@2.6.4 </tspan>
<tspan x="10" y="3130">  │ │ │ └── unpipe@1.0.0 </tspan>
<tspan x="10" y="3146">  │ │ ├── fresh@0.5.0 </tspan>
<tspan x="10" y="3162">  │ │ ├── merge-descriptors@1.0.1 </tspan>
<tspan x="10" y="3178">  │ │ ├── methods@1.1.2 </tspan>
<tspan x="10" y="3194">  │ │ ├─┬ on-finished@2.3.0 </tspan>
<tspan x="10" y="3210">  │ │ │ └── ee-first@1.1.1 </tspan>
<tspan x="10" y="3226">  │ │ ├── parseurl@1.3.1 </tspan>
<tspan x="10" y="3242">  │ │ ├── path-to-regexp@0.1.7 </tspan>
<tspan x="10" y="3258">  │ │ ├─┬ proxy-addr@1.1.4 </tspan>
<tspan x="10" y="3274">  │ │ │ ├── forwarded@0.1.0 </tspan>
<tspan x="10" y="3290">  │ │ │ └── ipaddr.js@1.3.0 </tspan>
<tspan x="10" y="3306">  │ │ ├── qs@6.4.0 </tspan>
<tspan x="10" y="3322">  │ │ ├── range-parser@1.2.0 </tspan>
<tspan x="10" y="3338">  │ │ ├─┬ send@0.15.1 </tspan>
<tspan x="10" y="3354">  │ │ │ ├── debug@2.6.1 </tspan>
<tspan x="10" y="3370">  │ │ │ ├── destroy@1.0.4 </tspan>
<tspan x="10" y="3386">  │ │ │ ├── http-errors@1.6.1 </tspan>
<tspan x="10" y="3402">  │ │ │ ├── mime@1.3.4 </tspan>
<tspan x="10" y="3418">  │ │ │ └── ms@0.7.2 </tspan>
<tspan x="10" y="3434">  │ │ ├── serve-static@1.12.1 </tspan>
<tspan x="10" y="3450">  │ │ ├── setprototypeof@1.0.3 </tspan>
<tspan x="10" y="3466">  │ │ ├── statuses@1.3.1 </tspan>
<tspan x="10" y="3482">  │ │ ├─┬ type-is@1.6.15 </tspan>
<tspan x="10" y="3498">  │ │ │ └── media-typer@0.3.0 </tspan>
<tspan x="10" y="3514">  │ │ ├── utils-merge@1.0.0 </tspan>
<tspan x="10" y="3530">  │ │ └── vary@1.1.1 </tspan>
<tspan x="10" y="3546">  │ ├── glob@5.0.15 </tspan>
<tspan x="10" y="3562">  │ ├─┬ rc@1.2.1 </tspan>
<tspan x="10" y="3578">  │ │ ├── deep-extend@0.4.1 </tspan>
<tspan x="10" y="3594">  │ │ ├── ini@1.3.4 </tspan>
<tspan x="10" y="3610">  │ │ ├── minimist@1.2.0 </tspan>
<tspan x="10" y="3626">  │ │ └── strip-json-comments@2.0.1 </tspan>
<tspan x="10" y="3642">  │ ├── semver@4.3.6 </tspan>
<tspan x="10" y="3658">  │ ├─┬ serve-favicon@2.4.2 </tspan>
<tspan x="10" y="3674">  │ │ └── ms@1.0.0 </tspan>
<tspan x="10" y="3690">  │ ├─┬ strong-data-uri@1.0.4 </tspan>
<tspan x="10" y="3706">  │ │ └── truncate@1.0.5 </tspan>
<tspan x="10" y="3722">  │ ├─┬ v8-debug@0.7.7 </tspan>
<tspan x="10" y="3738">  │ │ ├── nan@2.6.2 </tspan>
<tspan x="10" y="3754">  │ │ └─┬ node-pre-gyp@0.6.34 </tspan>
<tspan x="10" y="3770">  │ │   ├─┬ nopt@4.0.1 </tspan>
<tspan x="10" y="3786">  │ │   │ └── abbrev@1.1.0 </tspan>
<tspan x="10" y="3802">  │ │   ├─┬ npmlog@4.0.2 </tspan>
<tspan x="10" y="3818">  │ │   │ ├─┬ are-we-there-yet@1.1.4 </tspan>
<tspan x="10" y="3834">  │ │   │ │ └── delegates@1.0.0 </tspan>
<tspan x="10" y="3850">  │ │   │ ├── console-control-strings@1.1.0 </tspan>
<tspan x="10" y="3866">  │ │   │ ├─┬ gauge@2.7.4 </tspan>
<tspan x="10" y="3882">  │ │   │ │ ├── aproba@1.1.1 </tspan>
<tspan x="10" y="3898">  │ │   │ │ ├── has-unicode@2.0.1 </tspan>
<tspan x="10" y="3914">  │ │   │ │ ├── signal-exit@3.0.2 </tspan>
<tspan x="10" y="3930">  │ │   │ │ └── wide-align@1.1.0 </tspan>
<tspan x="10" y="3946">  │ │   │ └── set-blocking@2.0.0 </tspan>
<tspan x="10" y="3962">  │ │   ├─┬ request@2.81.0 </tspan>
<tspan x="10" y="3978">  │ │   │ ├── aws-sign2@0.6.0 </tspan>
<tspan x="10" y="3994">  │ │   │ ├── aws4@1.6.0 </tspan>
<tspan x="10" y="4010">  │ │   │ ├── caseless@0.12.0 </tspan>
<tspan x="10" y="4026">  │ │   │ ├─┬ combined-stream@1.0.5 </tspan>
<tspan x="10" y="4042">  │ │   │ │ └── delayed-stream@1.0.0 </tspan>
<tspan x="10" y="4058">  │ │   │ ├── extend@3.0.0 </tspan>
<tspan x="10" y="4074">  │ │   │ ├── forever-agent@0.6.1 </tspan>
<tspan x="10" y="4090">  │ │   │ ├─┬ form-data@2.1.4 </tspan>
<tspan x="10" y="4106">  │ │   │ │ └── asynckit@0.4.0 </tspan>
<tspan x="10" y="4122">  │ │   │ ├─┬ har-validator@4.2.1 </tspan>
<tspan x="10" y="4138">  │ │   │ │ ├─┬ ajv@4.11.7 </tspan>
<tspan x="10" y="4154">  │ │   │ │ │ ├── co@4.6.0 </tspan>
<tspan x="10" y="4170">  │ │   │ │ │ └─┬ json-stable-stringify@1.0.1 </tspan>
<tspan x="10" y="4186">  │ │   │ │ │   └── jsonify@0.0.0 </tspan>
<tspan x="10" y="4202">  │ │   │ │ └── har-schema@1.0.5 </tspan>
<tspan x="10" y="4218">  │ │   │ ├─┬ hawk@3.1.3 </tspan>
<tspan x="10" y="4234">  │ │   │ │ ├── boom@2.10.1 </tspan>
<tspan x="10" y="4250">  │ │   │ │ ├── cryptiles@2.0.5 </tspan>
<tspan x="10" y="4266">  │ │   │ │ ├── hoek@2.16.3 </tspan>
<tspan x="10" y="4282">  │ │   │ │ └── sntp@1.0.9 </tspan>
<tspan x="10" y="4298">  │ │   │ ├─┬ http-signature@1.1.1 </tspan>
<tspan x="10" y="4314">  │ │   │ │ ├── assert-plus@0.2.0 </tspan>
<tspan x="10" y="4330">  │ │   │ │ ├─┬ jsprim@1.4.0 </tspan>
<tspan x="10" y="4346">  │ │   │ │ │ ├── assert-plus@1.0.0 </tspan>
<tspan x="10" y="4362">  │ │   │ │ │ ├── extsprintf@1.0.2 </tspan>
<tspan x="10" y="4378">  │ │   │ │ │ ├── json-schema@0.2.3 </tspan>
<tspan x="10" y="4394">  │ │   │ │ │ └── verror@1.3.6 </tspan>
<tspan x="10" y="4410">  │ │   │ │ └─┬ sshpk@1.13.0 </tspan>
<tspan x="10" y="4426">  │ │   │ │   ├── asn1@0.2.3 </tspan>
<tspan x="10" y="4442">  │ │   │ │   ├── assert-plus@1.0.0 </tspan>
<tspan x="10" y="4458">  │ │   │ │   ├── bcrypt-pbkdf@1.0.1 </tspan>
<tspan x="10" y="4474">  │ │   │ │   ├─┬ dashdash@1.14.1 </tspan>
<tspan x="10" y="4490">  │ │   │ │   │ └── assert-plus@1.0.0 </tspan>
<tspan x="10" y="4506">  │ │   │ │   ├── ecc-jsbn@0.1.1 </tspan>
<tspan x="10" y="4522">  │ │   │ │   ├─┬ getpass@0.1.7 </tspan>
<tspan x="10" y="4538">  │ │   │ │   │ └── assert-plus@1.0.0 </tspan>
<tspan x="10" y="4554">  │ │   │ │   ├── jodid25519@1.0.2 </tspan>
<tspan x="10" y="4570">  │ │   │ │   ├── jsbn@0.1.1 </tspan>
<tspan x="10" y="4586">  │ │   │ │   └── tweetnacl@0.14.5 </tspan>
<tspan x="10" y="4602">  │ │   │ ├── is-typedarray@1.0.0 </tspan>
<tspan x="10" y="4618">  │ │   │ ├── isstream@0.1.2 </tspan>
<tspan x="10" y="4634">  │ │   │ ├── json-stringify-safe@5.0.1 </tspan>
<tspan x="10" y="4650">  │ │   │ ├── oauth-sign@0.8.2 </tspan>
<tspan x="10" y="4666">  │ │   │ ├── performance-now@0.2.0 </tspan>
<tspan x="10" y="4682">  │ │   │ ├── safe-buffer@5.0.1 </tspan>
<tspan x="10" y="4698">  │ │   │ ├── stringstream@0.0.5 </tspan>
<tspan x="10" y="4714">  │ │   │ ├─┬ tough-cookie@2.3.2 </tspan>
<tspan x="10" y="4730">  │ │   │ │ └── punycode@1.4.1 </tspan>
<tspan x="10" y="4746">  │ │   │ ├── tunnel-agent@0.6.0 </tspan>
<tspan x="10" y="4762">  │ │   │ └── uuid@3.0.1 </tspan>
<tspan x="10" y="4778">  │ │   ├── rimraf@2.6.1 </tspan>
<tspan x="10" y="4794">  │ │   ├── semver@5.3.0 </tspan>
<tspan x="10" y="4810">  │ │   ├─┬ tar@2.2.1 </tspan>
<tspan x="10" y="4826">  │ │   │ ├── block-stream@0.0.9 </tspan>
<tspan x="10" y="4842">  │ │   │ └── fstream@1.0.11 </tspan>
<tspan x="10" y="4858">  │ │   └─┬ tar-pack@3.4.0 </tspan>
<tspan x="10" y="4874">  │ │     ├── fstream-ignore@1.0.5 </tspan>
<tspan x="10" y="4890">  │ │     ├── rimraf@2.6.1 </tspan>
<tspan x="10" y="4906">  │ │     └── uid-number@0.0.6 </tspan>
<tspan x="10" y="4922">  │ ├── v8-profiler@5.6.5 </tspan>
<tspan x="10" y="4938">  │ ├─┬ which@1.2.14 </tspan>
<tspan x="10" y="4954">  │ │ └── isexe@2.0.0 </tspan>
<tspan x="10" y="4970">  │ ├─┬ ws@1.1.4 </tspan>
<tspan x="10" y="4986">  │ │ ├── options@0.0.6 </tspan>
<tspan x="10" y="5002">  │ │ └── ultron@1.0.2 </tspan>
<tspan x="10" y="5018">  │ └─┬ yargs@3.32.0 </tspan>
<tspan x="10" y="5034">  │   ├── camelcase@2.1.1 </tspan>
<tspan x="10" y="5050">  │   ├─┬ cliui@3.2.0 </tspan>
<tspan x="10" y="5066">  │   │ ├─┬ strip-ansi@3.0.1 </tspan>
<tspan x="10" y="5082">  │   │ │ └── ansi-regex@2.1.1 </tspan>
<tspan x="10" y="5098">  │   │ └── wrap-ansi@2.1.0 </tspan>
<tspan x="10" y="5114">  │   ├── decamelize@1.2.0 </tspan>
<tspan x="10" y="5130">  │   ├─┬ os-locale@1.4.0 </tspan>
<tspan x="10" y="5146">  │   │ └─┬ lcid@1.0.0 </tspan>
<tspan x="10" y="5162">  │   │   └── invert-kv@1.0.0 </tspan>
<tspan x="10" y="5178">  │   ├─┬ string-width@1.0.2 </tspan>
<tspan x="10" y="5194">  │   │ ├── code-point-at@1.1.0 </tspan>
<tspan x="10" y="5210">  │   │ └─┬ is-fullwidth-code-point@1.0.0 </tspan>
<tspan x="10" y="5226">  │   │   └── number-is-nan@1.0.1 </tspan>
<tspan x="10" y="5242">  │   ├── window-size@0.1.4 </tspan>
<tspan x="10" y="5258">  │   └── y18n@3.2.1 </tspan>
<tspan x="10" y="5274">  └── yadc@0.0.1</tspan>
</text>
</svg>
